<?xml version="1.0" encoding="utf-8"?>
<!-- Generator: Adobe Illustrator 16.0.0, SVG Export Plug-In . SVG Version: 6.00 Build 0)  -->
<!DOCTYPE svg PUBLIC "-//W3C//DTD SVG 1.1//EN" "http://www.w3.org/Graphics/SVG/1.1/DTD/svg11.dtd">
<svg version="1.1" id="Layer_1" xmlns="http://www.w3.org/2000/svg" xmlns:xlink="http://www.w3.org/1999/xlink" x="0px" y="0px"
	 width="1879.545px" height="485.022px" viewBox="0 0 1879.545 485.022" enable-background="new 0 0 1879.545 485.022"
	 xml:space="preserve">
<g>
	<g>
		<path fill="#1A1A1A" d="M1055.098,238.06c5.88,9.364,8.826,22.329,8.826,38.86v59.441c0,4.027-1.328,7.368-3.956,10.084
			c-2.621,2.716-5.951,4.062-9.972,4.062c-4.026,0-7.344-1.346-9.983-4.062c-2.615-2.716-3.943-6.057-3.943-10.084v-59.441
			c0-8.502-1.659-15.185-4.989-20.074c-3.318-4.865-9.157-7.297-17.523-7.297c-8.673,0-15.427,2.598-20.321,7.77
			c-4.87,5.195-7.297,11.725-7.297,19.601v59.441c0,4.027-1.316,7.368-3.956,10.084c-2.627,2.716-5.951,4.062-9.972,4.062
			c-4.026,0-7.368-1.346-9.995-4.062c-2.609-2.716-3.938-6.057-3.938-10.084v-59.441c0-8.502-1.641-15.185-4.982-20.074
			c-3.33-4.865-9.175-7.297-17.523-7.297c-8.679,0-15.45,2.598-20.327,7.77c-4.864,5.195-7.303,11.725-7.303,19.601v59.441
			c0,4.027-1.305,7.368-3.956,10.084c-2.615,2.716-5.945,4.062-9.966,4.062s-7.351-1.346-9.978-4.062
			c-2.64-2.716-3.944-6.057-3.944-10.084v-95.88c0-4.038,1.305-7.368,3.944-10.084c2.627-2.716,5.957-4.062,9.978-4.062
			s7.351,1.346,9.966,4.062c2.651,2.716,3.956,6.046,3.956,10.084v3.708c4.18-5.55,9.487-10.297,15.899-14.264
			c6.429-3.92,13.591-5.928,21.473-5.928c19.501,0,31.952,8.537,37.372,25.553c3.542-6.495,8.927-12.375,16.136-17.629
			c7.185-5.267,15.35-7.923,24.478-7.923C1038.631,223.996,1049.234,228.696,1055.098,238.06z"/>
		<path fill="#1A1A1A" d="M1204.58,227.964c2.627,2.645,3.955,6.022,3.955,10.202v98.194c0,4.027-1.328,7.368-3.955,10.084
			c-2.634,2.716-5.951,4.062-9.978,4.062c-4.021,0-7.321-1.299-9.86-3.944c-2.55-2.645-3.914-5.951-4.073-9.978
			c-3.867,4.475-9.08,8.301-15.657,11.489c-6.583,3.188-13.503,4.77-20.788,4.77c-10.668,0-20.345-2.739-29.006-8.242
			c-8.667-5.502-15.504-13.13-20.534-22.884c-5.042-9.73-7.551-20.806-7.551-33.192c0-12.363,2.479-23.475,7.433-33.287
			c4.959-9.848,11.731-17.5,20.321-23.002c8.579-5.467,18.043-8.242,28.428-8.242c7.415,0,14.376,1.358,20.876,4.062
			c6.501,2.728,12.003,6.176,16.479,10.344v-0.236c0-4.039,1.322-7.38,3.949-10.108c2.634-2.704,5.964-4.062,9.984-4.062
			C1198.629,223.996,1201.946,225.342,1204.58,227.964z M1172.314,316.264c6.341-7.345,9.518-16.567,9.518-27.737
			c0-11.135-3.177-20.416-9.518-27.855c-6.347-7.416-14.535-11.123-24.602-11.123c-9.895,0-18.024,3.708-24.371,11.123
			c-6.329,7.439-9.518,16.72-9.518,27.855c0,11.17,3.152,20.392,9.394,27.737c6.281,7.368,14.44,11.028,24.495,11.028
			C1157.779,327.292,1165.968,323.632,1172.314,316.264z"/>
		<path fill="#1A1A1A" d="M1337.791,238.06c6.046,9.364,9.051,22.329,9.051,38.86v59.441c0,4.027-1.311,7.368-3.943,10.084
			c-2.628,2.716-5.97,4.062-9.979,4.062c-4.021,0-7.338-1.346-9.96-4.062c-2.656-2.716-3.961-6.057-3.961-10.084v-59.441
			c0-8.502-1.777-15.185-5.344-20.074c-3.56-4.865-9.676-7.297-18.343-7.297c-8.963,0-15.994,2.598-21.119,7.77
			c-5.089,5.195-7.646,11.725-7.646,19.601v59.441c0,4.027-1.322,7.368-3.949,10.084c-2.628,2.716-5.958,4.062-9.99,4.062
			c-4.026,0-7.338-1.346-9.972-4.062c-2.627-2.716-3.949-6.057-3.949-10.084v-95.88c0-4.038,1.322-7.368,3.949-10.084
			c2.634-2.716,5.945-4.062,9.972-4.062c4.032,0,7.362,1.346,9.99,4.062c2.627,2.716,3.949,6.046,3.949,10.084v3.944
			c4.186-5.549,9.642-10.344,16.354-14.37c6.748-4.026,14.122-6.058,22.151-6.058
			C1320.853,223.996,1331.757,228.696,1337.791,238.06z"/>
		<path fill="#1A1A1A" d="M1487.504,227.964c2.639,2.645,3.962,6.022,3.962,10.202v98.194c0,4.027-1.323,7.368-3.962,10.084
			s-5.963,4.062-9.989,4.062c-4.003,0-7.315-1.299-9.848-3.944c-2.563-2.645-3.927-5.951-4.068-9.978
			c-3.885,4.475-9.098,8.301-15.663,11.489c-6.583,3.188-13.515,4.77-20.776,4.77c-10.68,0-20.351-2.739-29.012-8.242
			c-8.673-5.502-15.521-13.13-20.546-22.884c-5.03-9.73-7.539-20.806-7.539-33.192c0-12.363,2.474-23.475,7.421-33.287
			c4.953-9.848,11.726-17.5,20.315-23.002c8.585-5.467,18.066-8.242,28.422-8.242c7.433,0,14.394,1.358,20.882,4.062
			c6.507,2.728,12.015,6.176,16.496,10.344v-0.236c0-4.039,1.316-7.38,3.944-10.108c2.633-2.704,5.969-4.062,9.972-4.062
			C1481.541,223.996,1484.865,225.342,1487.504,227.964z M1455.238,316.264c6.347-7.345,9.518-16.567,9.518-27.737
			c0-11.135-3.171-20.416-9.518-27.855c-6.335-7.416-14.535-11.123-24.59-11.123c-9.912,0-18.03,3.708-24.395,11.123
			c-6.335,7.439-9.506,16.72-9.506,27.855c0,11.17,3.141,20.392,9.394,27.737c6.27,7.368,14.429,11.028,24.507,11.028
			C1440.703,327.292,1448.903,323.632,1455.238,316.264z"/>
		<path fill="#1A1A1A" d="M1634.441,227.964c2.616,2.645,3.933,6.022,3.933,10.202v103.272c0,18.893-5.845,32.85-17.506,41.93
			c-11.689,9.033-26.515,13.567-44.469,13.567c-4.64,0-11.034-0.779-19.141-2.314c-8.136-1.535-13.874-3.118-17.298-4.676
			c-7.558-3.235-11.371-7.722-11.371-13.438c0-1.11,0.224-2.302,0.69-3.731c0.938-3.377,2.545-5.975,4.759-7.746
			c2.231-1.795,4.688-2.668,7.32-2.668c1.553,0,3.018,0.212,4.405,0.661c0.607,0.165,4.445,1.606,11.494,4.322
			c7.038,2.692,13.42,4.05,19.141,4.05c11.454,0,20.009-2.279,25.653-6.86c5.65-4.558,8.466-10.981,8.466-19.365v-11.147
			c-3.395,4.818-8.543,9.14-15.438,13.024c-6.884,3.849-14.258,5.797-22.157,5.797c-10.834,0-20.688-2.739-29.608-8.242
			c-8.892-5.502-15.876-13.13-21.007-22.884c-5.089-9.73-7.64-20.806-7.64-33.192c0-12.363,2.497-23.475,7.527-33.287
			c5.042-9.848,11.926-17.5,20.676-23.002c8.75-5.467,18.456-8.242,29.13-8.242c7.882,0,15.232,1.653,22.058,4.889
			c6.802,3.259,12.292,7.179,16.46,11.855v-2.574c0-4.039,1.317-7.38,3.956-10.108c2.627-2.704,5.957-4.062,9.966-4.062
			C1628.473,223.996,1631.791,225.342,1634.441,227.964z M1601.828,316.264c6.565-7.345,9.854-16.567,9.854-27.737
			c0-11.135-3.288-20.416-9.854-27.855c-6.583-7.416-15.061-11.123-25.429-11.123c-10.361,0-18.798,3.708-25.292,11.123
			c-6.494,7.439-9.748,16.72-9.748,27.855c0,11.17,3.254,20.392,9.748,27.737c6.494,7.368,14.931,11.028,25.292,11.028
			C1586.768,327.292,1595.245,323.632,1601.828,316.264z"/>
		<path fill="#1A1A1A" d="M1770.924,294.584c-2.781,2.303-6.04,3.472-9.748,3.472h-76.604c1.854,9.139,6.116,16.283,12.765,21.467
			c6.671,5.195,14.181,7.77,22.523,7.77c6.335,0,11.294-0.579,14.86-1.736c3.554-1.169,6.382-2.373,8.454-3.719
			c2.09-1.299,3.531-2.196,4.292-2.669c2.805-1.393,5.432-2.078,7.9-2.078c3.253,0,6.027,1.157,8.359,3.483
			c2.309,2.303,3.483,4.995,3.483,8.112c0,4.18-2.167,7.958-6.506,11.383c-4.328,3.566-10.144,6.589-17.405,9.033
			c-7.285,2.48-14.624,3.743-22.051,3.743c-13.001,0-24.324-2.716-34.001-8.147c-9.677-5.396-17.14-12.871-22.406-22.388
			c-5.242-9.517-7.899-20.239-7.899-32.141c0-13.319,2.781-24.986,8.378-35.07c5.562-10.048,12.906-17.735,22.04-23.096
			c9.127-5.325,18.869-8.006,29.248-8.006c10.202,0,19.843,2.799,28.905,8.384c9.057,5.55,16.266,13.048,21.697,22.506
			c5.408,9.423,8.124,19.648,8.124,30.63C1775.163,289.235,1773.698,292.246,1770.924,294.584z M1684.809,274.841h60.816v-1.618
			c-0.632-6.506-3.802-12.056-9.522-16.72c-5.728-4.641-12.239-6.955-19.495-6.955
			C1698.653,249.549,1688.062,257.979,1684.809,274.841z"/>
		<path fill="#1A1A1A" d="M1874.78,227.964c3.171,2.645,4.765,5.715,4.765,9.257c0,4.83-1.234,8.407-3.726,10.816
			c-2.456,2.409-5.408,3.602-8.814,3.602c-2.314,0-4.953-0.555-7.888-1.641c-0.461-0.118-1.506-0.449-3.129-0.945
			c-1.636-0.437-3.371-0.661-5.231-0.661c-4.032,0-7.888,1.228-11.595,3.684c-3.72,2.479-6.767,6.258-9.169,11.265
			c-2.421,5.042-3.602,11.041-3.602,17.995v55.025c0,4.027-1.334,7.368-3.956,10.084c-2.621,2.716-5.945,4.062-9.978,4.062
			c-4.021,0-7.356-1.346-9.989-4.062c-2.615-2.716-3.933-6.057-3.933-10.084v-95.88c0-4.038,1.317-7.368,3.933-10.084
			c2.633-2.716,5.969-4.062,9.989-4.062c4.032,0,7.356,1.346,9.978,4.062c2.622,2.716,3.956,6.046,3.956,10.084v3.023
			c3.554-6.329,8.673-11.17,15.314-14.524c6.666-3.306,13.786-4.983,21.367-4.983
			C1867.713,223.996,1871.604,225.342,1874.78,227.964z"/>
	</g>
	<path fill="#1A1A1A" d="M791.627,114.253c-12.664-19.648-35.571-29.473-68.704-29.473c-16.862,0-32.378,4.204-46.506,12.646
		c-14.14,8.442-25.576,18.526-34.337,30.216v-8.289c0-8.419-2.77-15.492-8.271-21.184c-5.538-5.691-12.517-8.525-20.972-8.525
		c-8.437,0-15.421,2.834-20.959,8.525s-8.271,12.765-8.271,21.184v11.95c26.999,6.293,52.393,13.851,75.606,22.707
		c10.609-10.285,24.938-15.669,43.271-15.669c18.172,0,31.008,5.125,38.47,15.374c7.469,10.214,11.218,24.289,11.218,42.119v8.785
		c35.011,27.489,55.964,59.406,58.255,93.613c0.047-0.508,0.177-1.027,0.206-1.559v-8.962v-91.877
		C810.632,161.083,804.285,133.902,791.627,114.253z"/>
	<path fill="#1A1A1A" d="M30.181,57.989c11.4,0,19.418-1.724,24.142-5.137c4.699-3.4,7.062-9.813,7.062-19.223v-9.27
		c0-9.104-2.297-15.433-6.825-18.999C50.024,1.794,42.042,0,30.683,0C19.967,0,12.18,1.794,7.303,5.361
		C2.433,8.927,0,15.256,0,24.359v9.27c0,9.068,2.261,15.409,6.831,18.975C11.371,56.206,19.152,57.989,30.181,57.989z"/>
	<path fill="#1A1A1A" d="M228.949,38.966c0-8.431-2.751-15.492-8.253-21.183c-5.532-5.68-12.352-8.502-20.481-8.502
		c-8.442,0-15.427,1.453-20.93,4.369l-73.569,43.843c-4.558,2.609-8.2,6.175-10.963,10.71c-2.77,4.569-4.133,9.422-4.133,14.642
		c0,7.451,2.827,14.264,8.513,20.451c5.686,6.14,12.6,9.246,20.7,9.246c5.52,0,10.715-1.476,15.592-4.369l30.223-18.527v59.984
		c19.784-7.002,40.938-13.13,63.302-18.326V38.966z"/>
	<path fill="#1A1A1A" d="M361.458,108.172c0-13,4.452-23.805,13.385-32.413c8.944-8.572,20.238-12.894,33.859-12.894
		c13.325,0,24.448,4.322,33.369,12.894c8.927,8.608,13.432,19.413,13.432,32.413c0,1.771-0.768,3.2-0.945,4.959
		c19.826,1.122,39.091,2.987,57.924,5.408c0.502-3.767,1.465-7.214,1.465-11.347c0-17.877-4.641-34.267-13.893-49.204
		c-9.264-14.949-21.927-26.792-38.004-35.578c-16.082-8.761-33.854-13.13-53.348-13.13c-19.478,0-37.248,4.369-53.337,13.13
		c-16.082,8.785-28.829,20.628-38.234,35.578c-9.416,14.937-14.128,31.326-14.128,49.204c0,3.873,0.927,7.203,1.429,10.816
		c18.822-2.338,38.069-4.204,57.877-5.219C362.167,111.16,361.458,109.861,361.458,108.172z"/>
	<path fill="#0071BC" d="M165.647,149.63v50.703v120.229c0,8.455,2.893,15.492,8.75,21.207c5.862,5.668,13.319,8.514,22.405,8.514
		c9.098,0,16.731-2.846,22.919-8.514c6.158-5.715,9.228-12.752,9.228-21.207V180.094v-48.79
		C206.585,136.5,185.432,142.628,165.647,149.63z"/>
	<path fill="#0071BC" d="M583.606,131.304v48.932v140.325c0,8.455,2.733,15.492,8.271,21.207c5.538,5.668,12.522,8.514,20.959,8.514
		c8.455,0,15.434-2.846,20.972-8.514c5.502-5.715,8.271-12.752,8.271-21.207V198.656v-2.822c0-16.543,5.366-30.264,16.064-41.151
		c0.307-0.307,0.756-0.354,1.068-0.673C635.999,145.155,610.605,137.598,583.606,131.304z"/>
	<path fill="#1A1A1A" d="M22.198,284.441l37.732,15.445v-7.699v-87.202v-85.631c0-8.419-2.774-15.492-8.289-21.184
		c-5.532-5.691-12.511-8.525-20.959-8.525c-8.437,0-15.409,2.834-20.941,8.525s-8.283,12.765-8.283,21.184v177.733
		C2.013,285.527,10.964,279.824,22.198,284.441z"/>
	<path fill="#0071BC" d="M752.171,204.62v87.567c0,80.011-154.943,144.907-346.138,144.907
		c-149.075,0-276.129-39.474-324.842-94.806l11.542-7.958c10.497-7.25,9.458-17.145-2.367-21.986L60.468,300.11l-0.537-0.225
		l-37.732-15.445c-11.234-4.617-20.186,1.086-20.74,12.646c-0.029,0.59-0.142,1.133-0.136,1.748l0.136,4.711v0.909
		c0,0.283,0.035,0.543,0.047,0.85l1.76,67.187c0.349,12.753,9.204,17.251,19.72,9.99l15.096-10.438
		c63.692,66.62,204.455,112.979,368.189,112.979c199.094,0,364.21-68.474,398.11-158.687c3.441-9.139,5.42-18.526,6.046-28.103
		C808.135,264.025,787.182,232.108,752.171,204.62z"/>
	<path fill="#0071BC" d="M506.92,300.193c0.136-0.201,0.308-0.39,0.443-0.59c10.226-15.575,15.344-32.625,15.344-51.14
		c0-14.618-4.304-28.658-12.905-42.154c-8.597-13.473-20.558-24.75-35.79-33.854c4.587-2.479,8.667-5.585,12.628-8.82
		c5.893-4.7,11.307-9.954,15.841-16.248c5.703-7.864,8.543-17.854,10.001-28.847c-18.833-2.42-38.098-4.286-57.924-5.408
		c-1.068,10.686-4.776,20.109-12.486,27.666c-8.921,8.773-20.044,13.154-33.369,13.154c-13.621,0-24.915-4.298-33.859-12.895
		c-7.806-7.533-11.549-17.157-12.534-28.268c-19.808,1.016-39.055,2.881-57.877,5.219c1.382,10.344,4.115,19.967,9.518,28.15
		c4.351,6.589,9.677,12.091,15.492,17.063c3.926,3.365,7.94,6.613,12.521,9.234c-31.515,19.495-47.237,44.835-47.237,76.008
		c0,18.515,5.119,35.565,15.351,51.14c10.22,15.61,24.018,27.949,41.41,37.042c17.346,9.08,36.445,13.638,57.216,13.638
		c15.491,0,30.004-2.539,43.589-7.581l51.771,15.221c10.669,2.244,17.57-4.652,15.327-15.327L506.92,300.193z M369.258,282.328
		c-10.739-9.588-16.065-21.207-16.065-34.857c0-13.933,5.326-25.717,16.065-35.293c10.697-9.577,23.857-14.382,39.444-14.382
		c15.598,0,28.746,4.806,39.479,14.382c10.698,9.576,16.059,21.36,16.059,35.293c0,13.65-5.36,25.269-16.059,34.857
		c-10.733,9.564-23.882,14.358-39.479,14.358C393.115,296.686,379.955,291.892,369.258,282.328z"/>
</g>
</svg>
