<?xml version="1.0" encoding="utf-8"?>
<!-- Generator: Adobe Illustrator 16.0.0, SVG Export Plug-In . SVG Version: 6.00 Build 0)  -->
<!DOCTYPE svg PUBLIC "-//W3C//DTD SVG 1.1//EN" "http://www.w3.org/Graphics/SVG/1.1/DTD/svg11.dtd">
<svg version="1.1" id="Layer_1" xmlns="http://www.w3.org/2000/svg" xmlns:xlink="http://www.w3.org/1999/xlink" x="0px" y="0px"
	 width="441.791px" height="253.348px" viewBox="0 0 441.791 253.348" enable-background="new 0 0 441.791 253.348"
	 xml:space="preserve">
<g>
	<path fill="#1A1A1A" d="M198.111,60.184c0-7.053,2.416-12.908,7.268-17.585c4.847-4.657,10.972-7.003,18.369-7.003
		c7.223,0,13.258,2.346,18.109,7.003c4.837,4.677,7.268,10.532,7.268,17.585c0,2.436-0.399,4.687-0.983,6.858
		c6.19-0.399,12.464-0.609,18.823-0.609c4.488,0,8.92,0.13,13.323,0.325c0.334-2.246,0.549-4.602,0.549-7.103
		c0-9.693-2.516-18.594-7.537-26.705c-5.022-8.091-11.896-14.525-20.616-19.287c-8.725-4.757-18.369-7.128-28.936-7.128
		c-10.572,0-20.216,2.371-28.941,7.128c-8.72,4.762-15.634,11.196-20.74,19.287c-5.111,8.111-7.667,17.012-7.667,26.705
		c0,8.097,1.992,15.149,5.945,21.145c0.409,0.609,0.873,1.148,1.303,1.742c8.935-3.37,18.419-6.27,28.347-8.646
		C199.429,69.997,198.111,65.435,198.111,60.184z"/>
	<path fill="#0071BC" d="M318.623,71.06v23.47v80.869c0,4.582,1.498,8.416,4.498,11.5c3,3.09,6.789,4.622,11.366,4.622
		c4.582,0,8.366-1.532,11.366-4.622c2.995-3.085,4.497-6.918,4.497-11.5v-67.656c0-1.158,0.18-2.206,0.274-3.304
		c0.654-7.482,3.375-13.872,8.451-19.018c0.843-0.869,1.847-1.532,2.79-2.271C348.572,78.014,334.067,73.91,318.623,71.06z"/>
	<path fill="#1A1A1A" d="M441.156,94.53c-1.282-12.668-4.507-23.026-9.684-31.052c-6.873-10.652-19.292-15.983-37.257-15.983
		c-9.165,0-17.575,2.291-25.243,6.868c-7.667,4.582-13.872,10.043-18.624,16.382v-4.493c0-4.572-1.502-8.405-4.497-11.495
		c-3-3.085-6.784-4.617-11.366-4.617c-4.577,0-8.366,1.532-11.366,4.617c-3,3.09-4.498,6.923-4.498,11.495v4.807
		c15.444,2.85,29.949,6.954,43.242,12.09c5.511-4.303,12.529-6.594,21.254-6.594c9.858,0,16.812,2.775,20.87,8.331
		c1.981,2.721,3.474,5.93,4.487,9.644c1.059,3.864,1.598,8.267,1.598,13.213v0.979v13.223v3.06
		c13.422,11.371,23.141,24.399,28.137,38.48c0.41,1.158,0.789,2.321,1.138,3.499c1.208-4.128,2.062-8.326,2.441-12.604v-1.243
		v-9.978v-2.97v-1.248v-9.983v-7.013v-14.201C441.791,103.086,441.576,98.679,441.156,94.53z"/>
	<path fill="#1A1A1A" d="M94.001,146.703c2.271-2.73,6.15-3.494,10.538-1.567l0.529,0.235l0.03,0.01l3.01,1.323l18.129,7.981
		v-14.161v-5.95v-2.032v-11.356v-12.374V22.646c0-4.582-1.502-8.411-4.492-11.49c-2.99-3.085-6.699-4.623-11.106-4.623
		c-4.582,0-8.366,0.794-11.356,2.371L59.375,32.69c-2.476,1.413-4.453,3.349-5.945,5.81c-1.507,2.476-2.246,5.121-2.246,7.937
		c0,4.053,1.538,7.757,4.623,11.102c3.075,3.344,6.829,5.021,11.231,5.021c3,0,5.815-0.799,8.461-2.376l16.387-10.043v71.045v13.388
		v4.657v14.161c0-0.604,0.05-1.178,0.12-1.737C92.265,149.638,92.958,147.96,94.001,146.703z"/>
	<path fill="#0071BC" d="M438.211,163.439c-4.997-14.076-14.715-27.104-28.137-38.47v23.77c0,45.249-63.543,81.937-141.911,81.937
		c-58.437,0-108.597-20.396-130.36-49.517l7.992-5.221c6.364-4.163,5.885-10.073-1.083-13.128l-18.039-7.937l-0.435-0.19
		l-18.129-7.981l-3.01-1.323l-0.03-0.01l-0.529-0.235c-4.388-1.927-8.266-1.163-10.538,1.567c-1.043,1.258-1.737,2.935-1.997,4.952
		c-0.07,0.559-0.12,1.133-0.12,1.737v11.854v19.952v4.363c0,0.09,0.02,0.169,0.02,0.259l0.005,7.467
		c0,7.607,5.221,10.423,11.585,6.265l8.87-5.79c29.405,33.059,87.567,55.586,154.599,55.586c63.503,0,119.104-20.201,149.798-50.43
		c11.017-10.857,18.773-23.011,22.587-35.979C439,165.766,438.621,164.603,438.211,163.439z"/>
	<path fill="#0071BC" d="M276.18,165.586c0.359-0.514,0.739-1.019,1.088-1.553c5.546-8.445,8.321-17.69,8.321-27.738
		c0-7.937-2.331-15.554-6.998-22.861c-4.667-7.317-11.151-13.432-19.423-18.369c3.1-1.682,5.94-3.674,8.531-5.955
		c2.556-2.261,4.866-4.807,6.923-7.657c2.96-4.098,4.822-9.015,5.666-14.695c-4.403-0.195-8.835-0.325-13.323-0.325
		c-6.359,0-12.633,0.21-18.823,0.609c-1.098,4.078-3.125,7.727-6.284,10.837c-4.852,4.767-10.887,7.138-18.109,7.138
		c-7.397,0-13.522-2.331-18.369-6.993c-1.318-1.278-2.426-2.661-3.384-4.128c-9.928,2.376-19.413,5.276-28.347,8.646
		c3.769,5.146,8.366,9.354,13.892,12.523c-8.221,5.087-14.411,10.922-18.679,17.476c-4.597,7.073-6.948,14.975-6.948,23.755
		c0,10.048,2.775,19.293,8.326,27.738c5.545,8.471,13.028,15.16,22.462,20.091c9.424,4.937,19.771,7.397,31.048,7.397
		c9.169,0,17.71-1.652,25.651-4.912l28.373,9.449c4.467,0.934,7.353-1.952,6.419-6.424L276.18,165.586z M202.349,154.659
		c-5.82-5.196-8.72-11.491-8.72-18.903c0-7.567,2.9-13.956,8.72-19.152c5.805-5.187,12.943-7.792,21.399-7.792
		c8.461,0,15.589,2.605,21.409,7.792c5.815,5.196,8.725,11.585,8.725,19.152c0,7.413-2.91,13.707-8.725,18.903
		c-5.82,5.196-12.948,7.802-21.409,7.802C215.292,162.461,208.154,159.855,202.349,154.659z"/>
	<g>
		<path fill="#1A1A1A" d="M16.777,0C10.917,0,6.664,0.968,3.988,2.92C1.338,4.876,0,8.336,0,13.308v5.062
			c0,4.961,1.243,8.451,3.734,10.382c2.481,1.967,6.739,2.925,12.778,2.925c6.225,0,10.607-0.924,13.188-2.781
			c2.57-1.872,3.858-5.371,3.858-10.527v-5.062c0-4.972-1.243-8.431-3.724-10.388C27.344,0.968,22.996,0,16.777,0z"/>
		<path fill="#1A1A1A" d="M16.777,49.007c-4.607,0-8.426,1.542-11.446,4.657c-3.025,3.12-4.542,6.968-4.542,11.575v110.035
			c0,4.612,1.518,8.476,4.542,11.585c3.02,3.1,6.838,4.662,11.446,4.662c4.622,0,8.441-1.562,11.46-4.662
			c3.015-3.11,4.532-6.973,4.532-11.585V65.24c0-4.607-1.517-8.456-4.532-11.575C25.218,50.55,21.399,49.007,16.777,49.007z"/>
	</g>
</g>
</svg>
