<?xml version="1.0" encoding="utf-8"?>
<!-- Generator: Adobe Illustrator 16.0.0, SVG Export Plug-In . SVG Version: 6.00 Build 0)  -->
<!DOCTYPE svg PUBLIC "-//W3C//DTD SVG 1.1//EN" "http://www.w3.org/Graphics/SVG/1.1/DTD/svg11.dtd">
<svg version="1.1" id="Layer_1" xmlns="http://www.w3.org/2000/svg" xmlns:xlink="http://www.w3.org/1999/xlink" x="0px" y="0px"
	 width="810.632px" height="485.022px" viewBox="0 0 810.632 485.022" enable-background="new 0 0 810.632 485.022"
	 xml:space="preserve">
<g>
	<path fill="#1A1A1A" d="M791.627,114.253c-12.664-19.648-35.571-29.473-68.704-29.473c-16.862,0-32.378,4.204-46.506,12.646
		c-14.14,8.442-25.576,18.526-34.337,30.216v-8.289c0-8.419-2.77-15.492-8.271-21.184c-5.538-5.691-12.517-8.525-20.972-8.525
		c-8.437,0-15.421,2.834-20.959,8.525s-8.271,12.765-8.271,21.184v11.95c26.999,6.293,52.393,13.851,75.606,22.707
		c10.609-10.285,24.938-15.669,43.271-15.669c18.172,0,31.008,5.125,38.47,15.374c7.469,10.214,11.218,24.289,11.218,42.119v8.785
		c35.011,27.489,55.964,59.406,58.255,93.613c0.047-0.508,0.177-1.027,0.206-1.559v-8.962v-91.877
		C810.632,161.083,804.285,133.902,791.627,114.253z"/>
	<path fill="#1A1A1A" d="M30.181,57.989c11.4,0,19.418-1.724,24.142-5.137c4.699-3.4,7.062-9.813,7.062-19.223v-9.27
		c0-9.104-2.297-15.433-6.825-18.999C50.024,1.794,42.042,0,30.683,0C19.967,0,12.18,1.794,7.303,5.361
		C2.433,8.927,0,15.256,0,24.359v9.27c0,9.068,2.261,15.409,6.831,18.975C11.371,56.206,19.152,57.989,30.181,57.989z"/>
	<path fill="#1A1A1A" d="M228.949,38.966c0-8.431-2.751-15.492-8.253-21.183c-5.532-5.68-12.352-8.502-20.481-8.502
		c-8.442,0-15.427,1.453-20.93,4.369l-73.569,43.843c-4.558,2.609-8.2,6.175-10.963,10.71c-2.77,4.569-4.133,9.422-4.133,14.642
		c0,7.451,2.827,14.264,8.513,20.451c5.686,6.14,12.6,9.246,20.7,9.246c5.52,0,10.715-1.476,15.592-4.369l30.223-18.527v59.984
		c19.784-7.002,40.938-13.13,63.302-18.326V38.966z"/>
	<path fill="#1A1A1A" d="M361.458,108.172c0-13,4.452-23.805,13.385-32.413c8.944-8.572,20.238-12.894,33.859-12.894
		c13.325,0,24.448,4.322,33.369,12.894c8.927,8.608,13.432,19.413,13.432,32.413c0,1.771-0.768,3.2-0.945,4.959
		c19.826,1.122,39.091,2.987,57.924,5.408c0.502-3.767,1.465-7.214,1.465-11.347c0-17.877-4.641-34.267-13.893-49.204
		c-9.264-14.949-21.927-26.792-38.004-35.578c-16.082-8.761-33.854-13.13-53.348-13.13c-19.478,0-37.248,4.369-53.337,13.13
		c-16.082,8.785-28.829,20.628-38.234,35.578c-9.416,14.937-14.128,31.326-14.128,49.204c0,3.873,0.927,7.203,1.429,10.816
		c18.822-2.338,38.069-4.204,57.877-5.219C362.167,111.16,361.458,109.861,361.458,108.172z"/>
	<path fill="#0071BC" d="M165.647,149.63v50.703v120.229c0,8.455,2.893,15.492,8.75,21.207c5.862,5.668,13.319,8.514,22.405,8.514
		c9.098,0,16.731-2.846,22.919-8.514c6.158-5.715,9.228-12.752,9.228-21.207V180.094v-48.79
		C206.585,136.5,185.432,142.628,165.647,149.63z"/>
	<path fill="#0071BC" d="M583.606,131.304v48.932v140.325c0,8.455,2.733,15.492,8.271,21.207c5.538,5.668,12.522,8.514,20.959,8.514
		c8.455,0,15.434-2.846,20.972-8.514c5.502-5.715,8.271-12.752,8.271-21.207V198.656v-2.822c0-16.543,5.366-30.264,16.064-41.151
		c0.307-0.307,0.756-0.354,1.068-0.673C635.999,145.155,610.605,137.598,583.606,131.304z"/>
	<path fill="#1A1A1A" d="M22.198,284.441l37.732,15.445v-7.699v-87.202v-85.631c0-8.419-2.774-15.492-8.289-21.184
		c-5.532-5.691-12.511-8.525-20.959-8.525c-8.437,0-15.409,2.834-20.941,8.525s-8.283,12.765-8.283,21.184v177.733
		C2.013,285.527,10.964,279.824,22.198,284.441z"/>
	<path fill="#0071BC" d="M752.171,204.62v87.567c0,80.011-154.943,144.907-346.138,144.907
		c-149.075,0-276.129-39.474-324.842-94.806l11.542-7.958c10.497-7.25,9.458-17.145-2.367-21.986L60.468,300.11l-0.537-0.225
		l-37.732-15.445c-11.234-4.617-20.186,1.086-20.74,12.646c-0.029,0.59-0.142,1.133-0.136,1.748l0.136,4.711v0.909
		c0,0.283,0.035,0.543,0.047,0.85l1.76,67.187c0.349,12.753,9.204,17.251,19.72,9.99l15.096-10.438
		c63.692,66.62,204.455,112.979,368.189,112.979c199.094,0,364.21-68.474,398.11-158.687c3.441-9.139,5.42-18.526,6.046-28.103
		C808.135,264.025,787.182,232.108,752.171,204.62z"/>
	<path fill="#0071BC" d="M506.92,300.193c0.136-0.201,0.308-0.39,0.443-0.59c10.226-15.575,15.344-32.625,15.344-51.14
		c0-14.618-4.304-28.658-12.905-42.154c-8.597-13.473-20.558-24.75-35.79-33.854c4.587-2.479,8.667-5.585,12.628-8.82
		c5.893-4.7,11.307-9.954,15.841-16.248c5.703-7.864,8.543-17.854,10.001-28.847c-18.833-2.42-38.098-4.286-57.924-5.408
		c-1.068,10.686-4.776,20.109-12.486,27.666c-8.921,8.773-20.044,13.154-33.369,13.154c-13.621,0-24.915-4.298-33.859-12.895
		c-7.806-7.533-11.549-17.157-12.534-28.268c-19.808,1.016-39.055,2.881-57.877,5.219c1.382,10.344,4.115,19.967,9.518,28.15
		c4.351,6.589,9.677,12.091,15.492,17.063c3.926,3.365,7.94,6.613,12.521,9.234c-31.515,19.495-47.237,44.835-47.237,76.008
		c0,18.515,5.119,35.565,15.351,51.14c10.22,15.61,24.018,27.949,41.41,37.042c17.346,9.08,36.445,13.638,57.216,13.638
		c15.491,0,30.004-2.539,43.589-7.581l51.771,15.221c10.669,2.244,17.57-4.652,15.327-15.327L506.92,300.193z M369.258,282.328
		c-10.739-9.588-16.065-21.207-16.065-34.857c0-13.933,5.326-25.717,16.065-35.293c10.697-9.577,23.857-14.382,39.444-14.382
		c15.598,0,28.746,4.806,39.479,14.382c10.698,9.576,16.059,21.36,16.059,35.293c0,13.65-5.36,25.269-16.059,34.857
		c-10.733,9.564-23.882,14.358-39.479,14.358C393.115,296.686,379.955,291.892,369.258,282.328z"/>
</g>
</svg>
